<?xml version="1.0" encoding="UTF-8" standalone="no"?>
<!-- Generator: Adobe Illustrator 19.0.0, SVG Export Plug-In . SVG Version: 6.00 Build 0)  -->

<svg
   xmlns:dc="http://purl.org/dc/elements/1.1/"
   xmlns:cc="http://creativecommons.org/ns#"
   xmlns:rdf="http://www.w3.org/1999/02/22-rdf-syntax-ns#"
   xmlns:svg="http://www.w3.org/2000/svg"
   xmlns="http://www.w3.org/2000/svg"
   xmlns:sodipodi="http://sodipodi.sourceforge.net/DTD/sodipodi-0.dtd"
   xmlns:inkscape="http://www.inkscape.org/namespaces/inkscape"
   version="1.1"
   id="Capa_1"
   x="0px"
   y="0px"
   viewBox="0 0 512 512"
   style="enable-background:new 0 0 512 512;"
   xml:space="preserve"
   sodipodi:docname="loader.svg"
   inkscape:version="0.92.5 (2060ec1f9f, 2020-04-08)"><metadata
   id="metadata935"><rdf:RDF><cc:Work
       rdf:about=""><dc:format>image/svg+xml</dc:format><dc:type
         rdf:resource="http://purl.org/dc/dcmitype/StillImage" /><dc:title /></cc:Work></rdf:RDF></metadata><defs
   id="defs933" /><sodipodi:namedview
   pagecolor="#ffffff"
   bordercolor="#666666"
   borderopacity="1"
   objecttolerance="10"
   gridtolerance="10"
   guidetolerance="10"
   inkscape:pageopacity="0"
   inkscape:pageshadow="2"
   inkscape:window-width="2560"
   inkscape:window-height="1377"
   id="namedview931"
   showgrid="false"
   inkscape:zoom="1.6683301"
   inkscape:cx="133.75263"
   inkscape:cy="237.58059"
   inkscape:window-x="-8"
   inkscape:window-y="-8"
   inkscape:window-maximized="1"
   inkscape:current-layer="Capa_1" />
<path
   style="fill:#009f77;fill-opacity:0.01623377"
   d="M255.998,126.4c8.284,0,15-6.716,15-15V15c0-8.284-6.716-15-15-15s-15,6.716-15,15v96.4  C240.998,119.685,247.714,126.4,255.998,126.4z"
   id="path876" />
<path
   style="fill:#009f77;fill-opacity:0.39215687"
   d="M255.998,512c8.284,0,15-6.716,15-15v-96.399c0-8.284-6.716-15-15-15s-15,6.716-15,15V497  C240.998,505.284,247.714,512,255.998,512z"
   id="path878" />
<path
   style="fill:#009f77;fill-opacity:0.03921569"
   d="M328.285,145.775c5.184,0,10.225-2.69,13.004-7.503l48.199-83.485  c4.143-7.175,1.684-16.349-5.49-20.49c-7.174-4.144-16.348-1.686-20.49,5.49l-48.199,83.485c-4.143,7.175-1.684,16.349,5.49,20.49  C323.161,145.127,325.74,145.775,328.285,145.775z"
   id="path880" />
<path
   style="fill:#009f77;fill-opacity:0.50980395"
   d="M135.484,479.715c5.184,0,10.226-2.69,13.004-7.503l48.199-83.483  c4.143-7.175,1.685-16.349-5.49-20.49c-7.174-4.143-16.348-1.685-20.49,5.49l-48.199,83.483c-4.143,7.175-1.685,16.349,5.49,20.49  C130.36,479.066,132.939,479.715,135.484,479.715z"
   id="path882" />
<path
   style="fill:#009f77;fill-opacity:0.05882353"
   d="M381.238,198.705c2.545,0,5.124-0.648,7.486-2.013l83.486-48.202  c7.175-4.143,9.633-13.316,5.49-20.49c-4.143-7.175-13.315-9.634-20.49-5.49l-83.486,48.202c-7.175,4.143-9.633,13.316-5.49,20.49  C371.013,196.015,376.055,198.705,381.238,198.705z"
   id="path884" />
<path
   style="fill:#009f77;fill-opacity:0.627451"
   d="M47.301,391.503c2.545,0,5.124-0.648,7.486-2.013l83.484-48.198c7.174-4.142,9.633-13.315,5.49-20.49  c-4.143-7.175-13.315-9.635-20.49-5.49L39.787,363.51c-7.174,4.142-9.633,13.315-5.49,20.49  C37.075,388.811,42.117,391.503,47.301,391.503z"
   id="path886" />
<path
   style="fill:#009f77;fill-opacity:0.11764706"
   d="M400.598,271.002H497c8.284,0,15-6.716,15-15s-6.716-15-15-15h-96.402c-8.284,0-15,6.716-15,15  S392.313,271.002,400.598,271.002z"
   id="path888" />
<path
   style="fill:#009f77;fill-opacity:0.74509805"
   d="M15,271.002h96.398c8.284,0,15-6.716,15-15s-6.716-15-15-15H15c-8.284,0-15,6.716-15,15  S6.716,271.002,15,271.002z"
   id="path890" />
<path
   style="fill:#009f77;fill-opacity:0.23529412"
   d="M464.697,391.505c5.184,0,10.226-2.69,13.004-7.503c4.143-7.175,1.685-16.349-5.49-20.49  l-83.486-48.2c-7.173-4.143-16.349-1.684-20.49,5.49c-4.143,7.175-1.685,16.349,5.49,20.49l83.486,48.2  C459.573,390.856,462.152,391.505,464.697,391.505z"
   id="path892" />
<path
   style="fill:#009f77;fill-opacity:0.86274511"
   d="M130.758,198.705c5.184,0,10.226-2.691,13.004-7.503c4.143-7.175,1.685-16.349-5.49-20.49  l-83.484-48.2c-7.174-4.145-16.348-1.684-20.49,5.49c-4.143,7.174-1.685,16.349,5.49,20.49l83.484,48.2  C125.634,198.057,128.213,198.705,130.758,198.705z"
   id="path894" />
<path
   style="fill:#009f77;fill-opacity:0.27450982"
   d="M376.512,479.718c2.545,0,5.124-0.648,7.486-2.013c7.174-4.142,9.633-13.316,5.49-20.49  l-48.199-83.485c-4.142-7.174-13.316-9.635-20.49-5.49c-7.174,4.142-9.633,13.315-5.49,20.49l48.199,83.485  C366.286,477.026,371.328,479.718,376.512,479.718z"
   id="path896" />
<path
   style="fill:#009f77;fill-opacity:0.98039216"
   d="M183.711,145.775c2.545,0,5.124-0.648,7.486-2.013c7.175-4.143,9.633-13.316,5.49-20.49  L148.488,39.79c-4.142-7.176-13.315-9.635-20.49-5.49c-7.175,4.143-9.633,13.316-5.49,20.49l48.199,83.483  C173.485,143.085,178.527,145.775,183.711,145.775z"
   id="path898" />
<g
   id="g900"
   style="fill:#009f77;fill-opacity:1">
</g>
<g
   id="g902"
   style="fill:#009f77;fill-opacity:1">
</g>
<g
   id="g904"
   style="fill:#009f77;fill-opacity:1">
</g>
<g
   id="g906"
   style="fill:#009f77;fill-opacity:1">
</g>
<g
   id="g908"
   style="fill:#009f77;fill-opacity:1">
</g>
<g
   id="g910"
   style="fill:#009f77;fill-opacity:1">
</g>
<g
   id="g912"
   style="fill:#009f77;fill-opacity:1">
</g>
<g
   id="g914"
   style="fill:#009f77;fill-opacity:1">
</g>
<g
   id="g916"
   style="fill:#009f77;fill-opacity:1">
</g>
<g
   id="g918"
   style="fill:#009f77;fill-opacity:1">
</g>
<g
   id="g920"
   style="fill:#009f77;fill-opacity:1">
</g>
<g
   id="g922"
   style="fill:#009f77;fill-opacity:1">
</g>
<g
   id="g924"
   style="fill:#009f77;fill-opacity:1">
</g>
<g
   id="g926"
   style="fill:#009f77;fill-opacity:1">
</g>
<g
   id="g928"
   style="fill:#009f77;fill-opacity:1">
</g>
</svg>